<svg width="120" height="50" viewBox="0 0 464 172" fill="none" xmlns="http://www.w3.org/2000/svg">
<g filter="url(#filter0_d_2_15)">
<path d="M4 38C4 32.4772 8.47715 28 14 28H450C455.523 28 460 32.4772 460 38V154C460 159.523 455.523 164 450 164H14C8.47714 164 4 159.523 4 154V38Z" fill="#5A2583"/>
<path d="M14 30.5H450C454.142 30.5 457.5 33.8579 457.5 38V154C457.5 158.142 454.142 161.5 450 161.5H14C9.85786 161.5 6.5 158.142 6.5 154V38C6.5 33.8579 9.85786 30.5 14 30.5Z" stroke="black" stroke-width="5"/>
</g>
<path d="M103.409 89.5V121H95.3636V68.6364H103.136V76.8182H103.818C105.045 74.1591 106.909 72.0227 109.409 70.4091C111.909 68.7727 115.136 67.9545 119.091 67.9545C122.636 67.9545 125.739 68.6818 128.398 70.1364C131.057 71.5682 133.125 73.75 134.602 76.6818C136.08 79.5909 136.818 83.2727 136.818 87.7273V121H128.773V88.2727C128.773 84.1591 127.705 80.9545 125.568 78.6591C123.432 76.3409 120.5 75.1818 116.773 75.1818C114.205 75.1818 111.909 75.7386 109.886 76.8523C107.886 77.9659 106.307 79.5909 105.148 81.7273C103.989 83.8636 103.409 86.4545 103.409 89.5Z" fill="black"/>
<path d="M407.318 124.091C402.273 124.091 397.92 122.977 394.261 120.75C390.625 118.5 387.818 115.364 385.841 111.341C383.886 107.295 382.909 102.591 382.909 97.2273C382.909 91.8636 383.886 87.1364 385.841 83.0455C387.818 78.9318 390.568 75.7273 394.091 73.4318C397.636 71.1136 401.773 69.9545 406.5 69.9545C409.227 69.9545 411.92 70.4091 414.58 71.3182C417.239 72.2273 419.659 73.7045 421.841 75.75C424.023 77.7727 425.761 80.4545 427.057 83.7955C428.352 87.1364 429 91.25 429 96.1364V99.5455H388.636V92.5909H420.818C420.818 89.6364 420.227 87 419.045 84.6818C417.886 82.3636 416.227 80.5341 414.068 79.1932C411.932 77.8523 409.409 77.1818 406.5 77.1818C403.295 77.1818 400.523 77.9773 398.182 79.5682C395.864 81.1364 394.08 83.1818 392.83 85.7045C391.58 88.2273 390.955 90.9318 390.955 93.8182V98.4545C390.955 102.409 391.636 105.761 393 108.511C394.386 111.239 396.307 113.318 398.761 114.75C401.216 116.159 404.068 116.864 407.318 116.864C409.432 116.864 411.341 116.568 413.045 115.977C414.773 115.364 416.261 114.455 417.511 113.25C418.761 112.023 419.727 110.5 420.409 108.682L428.182 110.864C427.364 113.5 425.989 115.818 424.057 117.818C422.125 119.795 419.739 121.341 416.898 122.455C414.057 123.545 410.864 124.091 407.318 124.091Z" fill="black"/>
<path d="M277.818 54.1818L253.409 124H231.591L207.182 54.1818H227.636L242.136 104.136H242.864L257.318 54.1818H277.818Z" fill="white"/>
<path d="M311.636 125.091C306.909 125.091 302.761 123.966 299.193 121.716C295.648 119.466 292.875 116.318 290.875 112.273C288.898 108.227 287.909 103.5 287.909 98.0909C287.909 92.6364 288.898 87.875 290.875 83.8068C292.875 79.7386 295.648 76.5795 299.193 74.3295C302.761 72.0795 306.909 70.9545 311.636 70.9545C316.364 70.9545 320.5 72.0795 324.045 74.3295C327.614 76.5795 330.386 79.7386 332.364 83.8068C334.364 87.875 335.364 92.6364 335.364 98.0909C335.364 103.5 334.364 108.227 332.364 112.273C330.386 116.318 327.614 119.466 324.045 121.716C320.5 123.966 316.364 125.091 311.636 125.091ZM311.636 117.864C315.227 117.864 318.182 116.943 320.5 115.102C322.818 113.261 324.534 110.841 325.648 107.841C326.761 104.841 327.318 101.591 327.318 98.0909C327.318 94.5909 326.761 91.3295 325.648 88.3068C324.534 85.2841 322.818 82.8409 320.5 80.9773C318.182 79.1136 315.227 78.1818 311.636 78.1818C308.045 78.1818 305.091 79.1136 302.773 80.9773C300.455 82.8409 298.739 85.2841 297.625 88.3068C296.511 91.3295 295.955 94.5909 295.955 98.0909C295.955 101.591 296.511 104.841 297.625 107.841C298.739 110.841 300.455 113.261 302.773 115.102C305.091 116.943 308.045 117.864 311.636 117.864Z" fill="black"/>
<path d="M372.136 71.6364V78.4545H345V71.6364H372.136ZM352.909 59.0909H360.955V109C360.955 111.273 361.284 112.977 361.943 114.114C362.625 115.227 363.489 115.977 364.534 116.364C365.602 116.727 366.727 116.909 367.909 116.909C368.795 116.909 369.523 116.864 370.091 116.773C370.659 116.659 371.114 116.568 371.455 116.5L373.091 123.727C372.545 123.932 371.784 124.136 370.807 124.341C369.83 124.568 368.591 124.682 367.091 124.682C364.818 124.682 362.591 124.193 360.409 123.216C358.25 122.239 356.455 120.75 355.023 118.75C353.614 116.75 352.909 114.227 352.909 111.182V59.0909Z" fill="#AC9E9E"/>
<path d="M176.318 122.091C171.273 122.091 166.92 120.977 163.261 118.75C159.625 116.5 156.818 113.364 154.841 109.341C152.886 105.295 151.909 100.591 151.909 95.2273C151.909 89.8636 152.886 85.1364 154.841 81.0455C156.818 76.9318 159.568 73.7273 163.091 71.4318C166.636 69.1136 170.773 67.9545 175.5 67.9545C178.227 67.9545 180.92 68.4091 183.58 69.3182C186.239 70.2273 188.659 71.7045 190.841 73.75C193.023 75.7727 194.761 78.4545 196.057 81.7955C197.352 85.1364 198 89.25 198 94.1364V97.5455H157.636V90.5909H189.818C189.818 87.6364 189.227 85 188.045 82.6818C186.886 80.3636 185.227 78.5341 183.068 77.1932C180.932 75.8523 178.409 75.1818 175.5 75.1818C172.295 75.1818 169.523 75.9773 167.182 77.5682C164.864 79.1364 163.08 81.1818 161.83 83.7045C160.58 86.2273 159.955 88.9318 159.955 91.8182V96.4545C159.955 100.409 160.636 103.761 162 106.511C163.386 109.239 165.307 111.318 167.761 112.75C170.216 114.159 173.068 114.864 176.318 114.864C178.432 114.864 180.341 114.568 182.045 113.977C183.773 113.364 185.261 112.455 186.511 111.25C187.761 110.023 188.727 108.5 189.409 106.682L197.182 108.864C196.364 111.5 194.989 113.818 193.057 115.818C191.125 117.795 188.739 119.341 185.898 120.455C183.057 121.545 179.864 122.091 176.318 122.091Z" fill="#AC9E9E"/>
<path d="M56.6364 125.091C51.9091 125.091 47.7614 123.966 44.1932 121.716C40.6477 119.466 37.875 116.318 35.875 112.273C33.8977 108.227 32.9091 103.5 32.9091 98.0909C32.9091 92.6364 33.8977 87.875 35.875 83.8068C37.875 79.7386 40.6477 76.5795 44.1932 74.3295C47.7614 72.0795 51.9091 70.9545 56.6364 70.9545C61.3636 70.9545 65.5 72.0795 69.0455 74.3295C72.6136 76.5795 75.3864 79.7386 77.3636 83.8068C79.3636 87.875 80.3636 92.6364 80.3636 98.0909C80.3636 103.5 79.3636 108.227 77.3636 112.273C75.3864 116.318 72.6136 119.466 69.0455 121.716C65.5 123.966 61.3636 125.091 56.6364 125.091ZM56.6364 117.864C60.2273 117.864 63.1818 116.943 65.5 115.102C67.8182 113.261 69.5341 110.841 70.6477 107.841C71.7614 104.841 72.3182 101.591 72.3182 98.0909C72.3182 94.5909 71.7614 91.3295 70.6477 88.3068C69.5341 85.2841 67.8182 82.8409 65.5 80.9773C63.1818 79.1136 60.2273 78.1818 56.6364 78.1818C53.0455 78.1818 50.0909 79.1136 47.7727 80.9773C45.4545 82.8409 43.7386 85.2841 42.625 88.3068C41.5114 91.3295 40.9545 94.5909 40.9545 98.0909C40.9545 101.591 41.5114 104.841 42.625 107.841C43.7386 110.841 45.4545 113.261 47.7727 115.102C50.0909 116.943 53.0455 117.864 56.6364 117.864Z" fill="#AC9E9E"/>
<defs>
<filter id="filter0_d_2_15" x="0" y="28" width="464" height="144" filterUnits="userSpaceOnUse" color-interpolation-filters="sRGB">
<feFlood flood-opacity="0" result="BackgroundImageFix"/>
<feColorMatrix in="SourceAlpha" type="matrix" values="0 0 0 0 0 0 0 0 0 0 0 0 0 0 0 0 0 0 127 0" result="hardAlpha"/>
<feOffset dy="4"/>
<feGaussianBlur stdDeviation="2"/>
<feComposite in2="hardAlpha" operator="out"/>
<feColorMatrix type="matrix" values="0 0 0 0 0 0 0 0 0 0 0 0 0 0 0 0 0 0 0.25 0"/>
<feBlend mode="normal" in2="BackgroundImageFix" result="effect1_dropShadow_2_15"/>
<feBlend mode="normal" in="SourceGraphic" in2="effect1_dropShadow_2_15" result="shape"/>
</filter>
</defs>
</svg>
